<svg width="24" height="24" viewBox="0 0 24 24" fill="none" xmlns="http://www.w3.org/2000/svg">
<path d="M22 10C22 16.6957 12 24 12 24C12 24 2 17.2174 2 10C2 4.47715 6.47715 0 12 0C17.5228 0 22 4.47715 22 10Z" fill="#092896"/>
<circle cx="12" cy="10" r="8" fill="white"/>
<g clip-path="url(#clip0_176_5298)">
<path d="M16.8695 6.45448V7.31509C16.8695 7.97926 16.3291 8.51957 15.665 8.51957H15.3082V14.7488C15.3082 14.7488 14.8533 14.7488 14.2942 14.7488H8.41037C8.41037 14.7488 8.41037 14.2939 8.41037 13.7347V8.51957H8.07405C7.40987 8.51957 6.86951 7.97926 6.86951 7.31509V6.45448C6.86951 5.79031 7.40987 5.25 8.07399 5.25H15.665C16.3291 5.25 16.8695 5.79031 16.8695 6.45448ZM16.256 6.45448C16.256 6.12859 15.9909 5.8635 15.665 5.8635H8.07399C7.7481 5.8635 7.483 6.12859 7.483 6.45448V7.31509C7.483 7.64098 7.7481 7.90607 8.07399 7.90607H8.4103V7.52896H8.29073C8.12135 7.52896 7.98399 7.3916 7.98399 7.22221V6.54736C7.98399 6.37798 8.12135 6.24061 8.29073 6.24061H15.4482C15.6176 6.24061 15.755 6.37798 15.755 6.54736V7.22221C15.755 7.3916 15.6176 7.52896 15.4482 7.52896H15.3082V7.90607H15.665C15.9909 7.90607 16.2559 7.64098 16.2559 7.31509L16.256 6.45448Z" fill="#092896"/>
<circle cx="11.8695" cy="10.0007" r="1.66667" fill="white"/>
<path d="M10.6195 14.375C10.6195 14.1288 10.571 13.885 10.4768 13.6575C10.3826 13.43 10.2444 13.2233 10.0703 13.0492C9.89622 12.8751 9.68952 12.737 9.46204 12.6427C9.23455 12.5485 8.99074 12.5 8.74451 12.5L8.74451 14.375H10.6195Z" fill="white"/>
<path d="M13.1195 14.375C13.1195 13.8777 13.3171 13.4008 13.6687 13.0492C14.0203 12.6975 14.4972 12.5 14.9945 12.5L14.9945 14.375L13.1195 14.375Z" fill="white"/>
</g>
<defs>
<clipPath id="clip0_176_5298">
<rect width="10" height="10" fill="white" transform="translate(6.86951 5)"/>
</clipPath>
</defs>
</svg>
