<svg width="24" height="24" viewBox="0 0 24 24" fill="none" xmlns="http://www.w3.org/2000/svg">
<g clip-path="url(#clip0_159_381)">
<path d="M17.0323 3.48388C18 1.5 19.5234 0 21 0C22.4766 0 24 1 24 3.48388C24 4.8375 24 6 22.5464 7.74195L17.0323 3.48388Z" fill="#C39B6E"/>
<path d="M6.96775 3.48388C6.5 1.5 4.70962 0 3 0C1.29038 0 0 1 0 3C0 4.5 0.292436 6.5 1.45372 7.74195L6.96775 3.48388Z" fill="#C39B6E"/>
<path d="M12 1.93555C5.37257 1.93555 0 5.41943 0 13.9356C0 20.5162 5.37257 24.0001 12 24.0001C18.6275 24.0001 24 20.5162 24 13.9356C24 5.41943 18.6274 1.93555 12 1.93555Z" fill="#AA825A"/>
<path d="M12 3.87109C7.72425 3.87109 2.70972 6.62153 2.70972 13.3447C2.70972 18.54 6.86911 21.2904 12 21.2904C17.131 21.2904 21.2904 18.54 21.2904 13.3448C21.2903 6.62153 16.2757 3.87109 12 3.87109Z" fill="#8C705C"/>
<path d="M10.3243 12.7737C10.0918 11.9893 9.58274 10.4512 8.09971 10.4512C6.98741 10.4512 3.76261 12.81 2.90906 15.4834C2.16755 17.806 6.58063 21.677 10.695 21.677C12.6945 21.677 10.955 14.9021 10.3243 12.7737Z" fill="#7C665D"/>
<path d="M13.6913 12.7737C13.9238 11.9893 14.4328 10.4512 15.9158 10.4512C17.0281 10.4512 20.2529 12.81 21.1065 15.4834C21.848 17.806 17.4349 21.677 13.3205 21.677C11.321 21.677 13.0606 14.9021 13.6913 12.7737Z" fill="#7C665D"/>
<path d="M8.9032 19.7422C8.9032 20.9892 10.9311 22.0647 12 22.0647C13.0689 22.0647 15.0968 20.9892 15.0968 19.7422H8.9032Z" fill="#C39B6E"/>
<path d="M12.835 12H11.165C10.7217 12 10.3184 12.2504 10.123 12.6483C9.34748 14.2279 7.90017 18.2811 8.51615 20.129C8.86237 21.1677 11.2259 20.129 12 20.129C12.7742 20.129 15.1377 21.1677 15.4839 20.129C16.0999 18.2811 14.6526 14.2279 13.877 12.6483C13.6816 12.2504 13.2783 12 12.835 12Z" fill="#D7B487"/>
<path d="M8.12904 12.7749C8.55662 12.7749 8.90323 12.4283 8.90323 12.0007C8.90323 11.5732 8.55662 11.2266 8.12904 11.2266C7.70147 11.2266 7.35486 11.5732 7.35486 12.0007C7.35486 12.4283 7.70147 12.7749 8.12904 12.7749Z" fill="#464655"/>
<path d="M15.871 12.7749C16.2986 12.7749 16.6452 12.4283 16.6452 12.0007C16.6452 11.5732 16.2986 11.2266 15.871 11.2266C15.4434 11.2266 15.0968 11.5732 15.0968 12.0007C15.0968 12.4283 15.4434 12.7749 15.871 12.7749Z" fill="#464655"/>
<path d="M12 18.9678C13.069 18.9678 13.9355 18.2746 13.9355 17.4195C13.9355 16.5643 13.069 15.8711 12 15.8711C10.9311 15.8711 10.0646 16.5643 10.0646 17.4195C10.0646 18.2746 10.9311 18.9678 12 18.9678Z" fill="#464655"/>
</g>
<defs>
<clipPath id="clip0_159_381">
<rect width="24" height="24" fill="white"/>
</clipPath>
</defs>
</svg>
