<svg width="316" height="64" viewBox="0 0 316 64" fill="none" xmlns="http://www.w3.org/2000/svg">
<g filter="url(#filter0_d_174_5044)">
<rect x="8" y="8" width="300" height="48" rx="12" fill="white" shape-rendering="crispEdges"/>
<g clip-path="url(#clip0_174_5044)">
<path fill-rule="evenodd" clip-rule="evenodd" d="M15.7368 22.1406L14.802 24.7012H27.756L28.6908 22.1406H15.7368ZM14.3343 25.9809L13.3996 28.5409H26.3536L27.2884 25.9809H14.3343ZM12.9348 29.8211L12 32.3811H24.954L25.8882 29.8211H12.9348Z" fill="#05AAFF"/>
<mask id="mask0_174_5044" style="mask-type:luminance" maskUnits="userSpaceOnUse" x="31" y="26" width="36" height="16">
<path d="M31.4351 41.7163H66.8952V26.0312H31.4351V41.7163Z" fill="#0A2973"/>
</mask>
<g mask="url(#mask0_174_5044)">
<path fill-rule="evenodd" clip-rule="evenodd" d="M39.5393 33.358V33.412C40.1313 33.6293 40.6968 34.0093 40.9931 34.2533C41.9085 35.0132 42.3126 36.0172 42.3126 37.3197C42.3126 39.4641 41.1816 41.0107 39.3237 41.4993C38.7582 41.662 38.1662 41.7166 37.0617 41.7166H31.4351V26.0312H36.4161C37.4393 26.0312 38.1391 26.0853 38.7582 26.2479C40.5625 26.7366 41.7471 27.9851 41.7471 29.9657C41.7471 31.0242 41.3701 31.9201 40.751 32.5167C40.4818 32.7881 40.1048 33.114 39.5393 33.358ZM34.5582 35.0132V39.1382H36.7124C37.358 39.1382 37.9506 39.0842 38.3818 38.6769C38.8124 38.2696 39.0009 37.7543 39.0009 37.0757C39.0009 36.5604 38.866 36.0718 38.5968 35.7191C38.1391 35.1492 37.5736 35.0132 36.6046 35.0132H34.5582ZM34.5312 32.2995H36.2812C36.8196 32.2995 37.0888 32.2995 37.358 32.2181C38.0855 32.0008 38.5432 31.3501 38.5432 30.4543C38.5432 29.3963 38.0584 28.9344 37.358 28.7177C37.0617 28.6364 36.766 28.6091 36.1734 28.6091H34.5312V32.2995ZM46.9974 41.7166V28.6631H42.5011V26.0312H54.9945L54.1061 28.6631H50.1206V41.7166H46.9974ZM55.9635 41.7166V26.0312H66.0876L65.1993 28.6631H59.0601V32.1368H61.5642C63.5835 32.1368 64.6338 32.6254 65.3607 33.2494C65.9262 33.738 66.8952 34.8232 66.8952 36.9677C66.8952 39.0842 65.8991 40.2508 65.0644 40.848C64.0954 41.526 63.0722 41.7166 60.9987 41.7166H55.9635ZM59.0601 39.0842H61.4028C62.2911 39.0842 62.8295 38.8669 63.2065 38.3783C63.395 38.1343 63.6642 37.6997 63.6642 36.8857C63.6642 36.0718 63.395 35.5018 62.8566 35.0946C62.5338 34.8506 62.1026 34.7152 61.3757 34.7152H59.0601V39.0842Z" fill="#0A2973"/>
</g>
</g>
<rect x="79" y="12" width="225" height="40" rx="8" fill="#F3F7FA"/>
<path d="M97.64 38.16C97.448 38.16 97.2453 38.1387 97.032 38.096C96.8187 38.064 96.6533 38.032 96.536 38L96.36 37.936V36.368C96.68 36.5813 97.0533 36.688 97.48 36.688C97.8 36.688 98.0453 36.6293 98.216 36.512C98.3973 36.384 98.5627 36.1547 98.712 35.824L99.112 34.944L95.16 26.8H96.968L99.928 33.04H99.992L102.728 26.8H104.28L100.056 36.32C99.7787 36.9493 99.464 37.4133 99.112 37.712C98.76 38.0107 98.2693 38.16 97.64 38.16ZM104.889 38V29.84H107.241L109.401 34.48L111.561 29.84H113.849V38H112.345V31.28H112.313L110.121 35.92H108.617L106.425 31.28H106.393V38H104.889ZM117.909 29.84V33.152H122.069V29.84H123.573V38H122.069V34.368H117.909V38H116.405V29.84H117.909ZM126.139 29.84H127.643V32.72H129.179C130.31 32.72 131.153 32.9547 131.707 33.424C132.262 33.8827 132.539 34.528 132.539 35.36C132.539 36.192 132.262 36.8427 131.707 37.312C131.153 37.7707 130.31 38 129.179 38H126.139V29.84ZM127.643 33.936V36.784H129.179C130.395 36.784 131.003 36.3093 131.003 35.36C131.003 34.4107 130.395 33.936 129.179 33.936H127.643ZM133.947 38V29.84H135.451V38H133.947ZM139.918 38H138.014V29.84H139.518V36.24H139.55L143.502 29.84H145.406V38H143.902V31.6H143.87L139.918 38ZM143.214 26.192L144.302 26.32C144.27 27.0027 144.03 27.5253 143.582 27.888C143.145 28.2507 142.574 28.432 141.87 28.432C141.166 28.432 140.574 28.2507 140.094 27.888C139.625 27.5253 139.374 27.0027 139.342 26.32L140.478 26.192C140.532 26.5653 140.681 26.8533 140.926 27.056C141.182 27.248 141.497 27.344 141.87 27.344C142.649 27.344 143.097 26.96 143.214 26.192ZM151.702 29.84H158.758V38H157.254V31.056H153.206V38H151.702V29.84ZM167.919 36.96C167.151 37.7387 166.154 38.128 164.927 38.128C163.701 38.128 162.698 37.7387 161.919 36.96C161.151 36.1813 160.767 35.168 160.767 33.92C160.767 32.672 161.151 31.6587 161.919 30.88C162.698 30.1013 163.701 29.712 164.927 29.712C166.154 29.712 167.151 30.1013 167.919 30.88C168.698 31.6587 169.087 32.672 169.087 33.92C169.087 35.168 168.698 36.1813 167.919 36.96ZM163.103 36.08C163.605 36.6347 164.213 36.912 164.927 36.912C165.642 36.912 166.245 36.6347 166.735 36.08C167.237 35.5253 167.487 34.8053 167.487 33.92C167.487 33.0347 167.237 32.3147 166.735 31.76C166.245 31.2053 165.642 30.928 164.927 30.928C164.213 30.928 163.605 31.2053 163.103 31.76C162.613 32.3147 162.367 33.0347 162.367 33.92C162.367 34.8053 162.613 35.5253 163.103 36.08ZM173.012 38H171.108V29.84H172.612V36.24H172.644L176.596 29.84H178.5V38H176.996V31.6H176.964L173.012 38ZM186.597 30.08V31.392C186.171 31.0827 185.584 30.928 184.837 30.928C184.005 30.928 183.344 31.1947 182.853 31.728C182.363 32.2507 182.117 32.9813 182.117 33.92C182.117 34.8587 182.363 35.5947 182.853 36.128C183.344 36.6507 184.005 36.912 184.837 36.912C185.168 36.912 185.477 36.8747 185.765 36.8C186.064 36.7253 186.277 36.6453 186.405 36.56L186.597 36.448V37.76C186.171 38.0053 185.531 38.128 184.677 38.128C183.44 38.128 182.437 37.744 181.669 36.976C180.901 36.1973 180.517 35.1787 180.517 33.92C180.517 32.6613 180.901 31.648 181.669 30.88C182.437 30.1013 183.44 29.712 184.677 29.712C185.061 29.712 185.413 29.744 185.733 29.808C186.053 29.872 186.277 29.936 186.405 30L186.597 30.08ZM188.327 38V29.84H189.831V33.424L193.111 29.84H195.159L191.367 33.728L195.623 38H193.495L189.831 34.08V38H188.327ZM200.216 41.504V40.192C200.483 40.3093 200.723 40.368 200.936 40.368C201.395 40.368 201.736 40.2453 201.96 40C202.195 39.7547 202.414 39.3547 202.616 38.8L202.792 38.32L199.736 29.84H201.384L203.608 36.4H203.672L205.896 29.84H207.416L204.312 38.32C203.843 39.5893 203.4 40.448 202.984 40.896C202.568 41.3547 201.939 41.584 201.096 41.584L200.216 41.504ZM213.847 30.08V31.392C213.421 31.0827 212.834 30.928 212.087 30.928C211.255 30.928 210.594 31.1947 210.103 31.728C209.613 32.2507 209.367 32.9813 209.367 33.92C209.367 34.8587 209.613 35.5947 210.103 36.128C210.594 36.6507 211.255 36.912 212.087 36.912C212.418 36.912 212.727 36.8747 213.015 36.8C213.314 36.7253 213.527 36.6453 213.655 36.56L213.847 36.448V37.76C213.421 38.0053 212.781 38.128 211.927 38.128C210.69 38.128 209.687 37.744 208.919 36.976C208.151 36.1973 207.767 35.1787 207.767 33.92C207.767 32.6613 208.151 31.648 208.919 30.88C209.687 30.1013 210.69 29.712 211.927 29.712C212.311 29.712 212.663 29.744 212.983 29.808C213.303 29.872 213.527 29.936 213.655 30L213.847 30.08ZM215.097 38.128C215.001 38.128 214.894 38.1173 214.777 38.096C214.66 38.0747 214.564 38.0533 214.489 38.032L214.377 38.016V36.624C214.537 36.6773 214.697 36.704 214.857 36.704C215.38 36.704 215.742 36.24 215.945 35.312C216.148 34.384 216.249 32.7733 216.249 30.48V29.84H221.817V38H220.313V31.056H217.609V31.28C217.609 33.744 217.412 35.504 217.017 36.56C216.622 37.6053 215.982 38.128 215.097 38.128ZM223.654 41.504V40.192C223.92 40.3093 224.16 40.368 224.374 40.368C224.832 40.368 225.174 40.2453 225.398 40C225.632 39.7547 225.851 39.3547 226.054 38.8L226.23 38.32L223.174 29.84H224.822L227.046 36.4H227.11L229.334 29.84H230.854L227.75 38.32C227.28 39.5893 226.838 40.448 226.422 40.896C226.006 41.3547 225.376 41.584 224.534 41.584L223.654 41.504ZM232.218 29.84H237.578V31.12H233.722V38H232.218V29.84ZM240.84 38H238.936V29.84H240.44V36.24H240.472L244.424 29.84H246.328V38H244.824V31.6H244.792L240.84 38Z" fill="#6B7683"/>
<g clip-path="url(#clip1_174_5044)">
<path d="M289.032 23.4839C290 21.5 291.523 20 293 20C294.476 20 296 21 296 23.4839C296 24.8375 296 26 294.546 27.742L289.032 23.4839Z" fill="#C39B6E"/>
<path d="M278.968 23.4839C278.5 21.5 276.71 20 275 20C273.29 20 272 21 272 23C272 24.5 272.292 26.5 273.454 27.742L278.968 23.4839Z" fill="#C39B6E"/>
<path d="M284 21.9355C277.373 21.9355 272 25.4194 272 33.9356C272 40.5162 277.373 44.0001 284 44.0001C290.627 44.0001 296 40.5162 296 33.9356C296 25.4194 290.627 21.9355 284 21.9355Z" fill="#AA825A"/>
<path d="M284 23.8711C279.724 23.8711 274.71 26.6215 274.71 33.3447C274.71 38.54 278.869 41.2904 284 41.2904C289.131 41.2904 293.29 38.54 293.29 33.3448C293.29 26.6215 288.276 23.8711 284 23.8711Z" fill="#8C705C"/>
<path d="M282.324 32.7737C282.092 31.9893 281.583 30.4512 280.1 30.4512C278.987 30.4512 275.763 32.81 274.909 35.4834C274.168 37.806 278.581 41.677 282.695 41.677C284.695 41.677 282.955 34.9021 282.324 32.7737Z" fill="#7C665D"/>
<path d="M285.691 32.7737C285.924 31.9893 286.433 30.4512 287.916 30.4512C289.028 30.4512 292.253 32.81 293.107 35.4834C293.848 37.806 289.435 41.677 285.321 41.677C283.321 41.677 285.061 34.9021 285.691 32.7737Z" fill="#7C665D"/>
<path d="M280.903 39.7422C280.903 40.9892 282.931 42.0647 284 42.0647C285.069 42.0647 287.097 40.9892 287.097 39.7422H280.903Z" fill="#C39B6E"/>
<path d="M284.835 32H283.165C282.722 32 282.318 32.2504 282.123 32.6483C281.347 34.2279 279.9 38.2811 280.516 40.129C280.862 41.1677 283.226 40.129 284 40.129C284.774 40.129 287.138 41.1677 287.484 40.129C288.1 38.2811 286.653 34.2279 285.877 32.6483C285.682 32.2504 285.278 32 284.835 32Z" fill="#D7B487"/>
<path d="M280.129 32.7749C280.557 32.7749 280.903 32.4283 280.903 32.0007C280.903 31.5732 280.557 31.2266 280.129 31.2266C279.702 31.2266 279.355 31.5732 279.355 32.0007C279.355 32.4283 279.702 32.7749 280.129 32.7749Z" fill="#464655"/>
<path d="M287.871 32.7749C288.299 32.7749 288.645 32.4283 288.645 32.0007C288.645 31.5732 288.299 31.2266 287.871 31.2266C287.444 31.2266 287.097 31.5732 287.097 32.0007C287.097 32.4283 287.444 32.7749 287.871 32.7749Z" fill="#464655"/>
<path d="M284 38.9678C285.069 38.9678 285.936 38.2746 285.936 37.4195C285.936 36.5643 285.069 35.8711 284 35.8711C282.931 35.8711 282.065 36.5643 282.065 37.4195C282.065 38.2746 282.931 38.9678 284 38.9678Z" fill="#464655"/>
</g>
<rect x="79.5" y="12.5" width="224" height="39" rx="7.5" stroke="black" stroke-opacity="0.01"/>
</g>
<defs>
<filter id="filter0_d_174_5044" x="0" y="0" width="316" height="64" filterUnits="userSpaceOnUse" color-interpolation-filters="sRGB">
<feFlood flood-opacity="0" result="BackgroundImageFix"/>
<feColorMatrix in="SourceAlpha" type="matrix" values="0 0 0 0 0 0 0 0 0 0 0 0 0 0 0 0 0 0 127 0" result="hardAlpha"/>
<feOffset/>
<feGaussianBlur stdDeviation="4"/>
<feComposite in2="hardAlpha" operator="out"/>
<feColorMatrix type="matrix" values="0 0 0 0 0 0 0 0 0 0 0 0 0 0 0 0 0 0 0.12 0"/>
<feBlend mode="normal" in2="BackgroundImageFix" result="effect1_dropShadow_174_5044"/>
<feBlend mode="normal" in="SourceGraphic" in2="effect1_dropShadow_174_5044" result="shape"/>
</filter>
<clipPath id="clip0_174_5044">
<rect width="55" height="19.7283" fill="white" transform="translate(12 22.1367)"/>
</clipPath>
<clipPath id="clip1_174_5044">
<rect width="24" height="24" fill="white" transform="translate(272 20)"/>
</clipPath>
</defs>
</svg>
